<?xml version="1.0" encoding="UTF-8"?>
<svg width="1200pt" height="1200pt" version="1.1" viewBox="0 0 1200 1200" xmlns="http://www.w3.org/2000/svg">
 <path d="m1181.3 468.74h-56.25v-75c0-10.359-8.3906-18.75-18.75-18.75h-150c-10.359 0-18.75 8.3906-18.75 18.75v75h-75v-318.74c0-10.359-8.3906-18.75-18.75-18.75h-56.25v-75c0-10.359-8.3906-18.75-18.75-18.75h-150c-10.359 0-18.75 8.3906-18.75 18.75v75h-75v-75c0-10.359-8.3906-18.75-18.75-18.75h-150c-10.359 0-18.75 8.3906-18.75 18.75v75h-75v-75c0-10.359-8.3906-18.75-18.75-18.75h-150c-10.359 0-18.75 8.3906-18.75 18.75v75h-56.25c-10.359 0-18.75 8.3906-18.75 18.75v337.5c0 10.359 8.3906 18.75 18.75 18.75h318.74v300h-75v-75c0-10.359-8.3906-18.75-18.75-18.75h-150c-10.359 0-18.75 8.3906-18.75 18.75v75h-56.25c-10.359 0-18.75 8.3906-18.75 18.75v337.5c0 10.359 8.3906 18.75 18.75 18.75h1162.5c10.359 0 18.75-8.3906 18.75-18.75v-675c0-10.359-8.3906-18.75-18.75-18.75zm-206.26-56.25h112.5v56.25h-112.5zm-337.5-337.5h112.5v56.25h-112.5zm-262.5 0h112.5v56.25h-112.5zm-262.5 0h112.5v56.25h-112.5zm-75 93.75h787.5v300h-787.5zm337.5 337.5h787.5v300h-787.5zm-262.5 243.74h112.5v56.25h-112.5zm-75 93.75h787.5v300h-787.5zm825 300v-300h300v300z" fill="#b30000"/>
</svg>
